<svg
  width="256"
  height="256"
  xmlns="http://www.w3.org/2000/svg"
  xmlns:svg="http://www.w3.org/2000/svg"
>
  <g>
    <title>Layer 1</title>
    <g
      fill-rule="evenodd"
      fill="#8fa3ad"
    >
    <path
      id="house"
      d="M0,256
         l0-20l25,0
         l0,-84.72
         l103,-103
         l103,103
         l0,84.72
         l25,0
         l0,20
         l-256,0 Z
         M58.00001,147.25083
         l53.47562,0
         l16.52438,-50.80161
         l16.52439,50.80161
         l53.47561,0
         l-43.2626,31.39676
         l16.52523,50.80161
         l-43.26262,-31.39762
         l-43.26261,31.39762
         l16.52524,-50.80161
         l-43.26262,-31.39676
         l-0.00002,0 Z"
    /></g>
    <path
      id="roof"
      d="m0,123l14.14,14.14l113.86,-113l113.86,113l14.14,-14.14l-50,-50l0,-40l-20,0l0,20l-58,-53l-128,123z"
      fill="#8fa3ad"
    />
  </g>
</svg>
